# MagicaVoxel @ Ephtracy

# group
o 

# material
mtllib Tree.mtl
usemtl palette

# normals
vn -1 0 0
vn 1 0 0
vn 0 0 1
vn 0 0 -1
vn 0 -1 0
vn 0 1 0

# texcoords
vt 0.771484 0.5
vt 0.912109 0.5
vt 0.927734 0.5
vt 0.943359 0.5
vt 0.958984 0.5

# verts
v -0.6 1.7 -0.1
v -0.6 1.7 -0.9
v -0.6 2.5 -0.1
v -0.6 2.5 -0.9
v -0.4 1.7 0.5
v -0.4 1.7 -0.1
v -0.4 1.9 0.7
v -0.4 1.9 0.5
v -0.4 1.9 -0.1
v -0.4 2.5 -0.1
v -0.4 2.5 -0.7
v -0.4 2.7 -0.1
v -0.4 2.7 -0.7
v -0.4 2.8 0.7
v -0.4 2.8 -0.1
v -0.2 2.7 -0.1
v -0.2 2.7 -0.6
v -0.2 2.8 0.3
v -0.2 2.8 -0.1
v -0.2 3 0.3
v -0.2 3 -0.6
v -0.1 0 0.1
v -0.1 0 -0.3
v -0.1 0.1 0.1
v -0.1 0.1 -0.3
v -5.96046e-08 0.1 0
v -5.96046e-08 0.1 -0.2
v -5.96046e-08 1.7 0
v -5.96046e-08 1.7 -0.1
v -5.96046e-08 1.7 -0.2
v 0.1 2.5 -0.7
v 0.1 2.5 -0.8
v 0.1 2.7 -0.6
v 0.1 2.7 -0.7
v 0.1 2.8 -0.6
v 0.1 2.8 -0.8
v 0.5 1.5 0
v 0.5 1.5 -0.2
v 0.5 1.7 0
v 0.5 1.7 -0.2
v 0.2 0.1 0
v 0.2 0.1 -0.2
v 0.2 1.3 0
v 0.2 1.3 -0.2
v 0.2 1.5 0
v 0.2 1.5 -0.2
v 0.2 1.7 0
v 0.2 1.7 -0.1
v 0.2 1.7 -0.2
v 0.3 0 0.1
v 0.3 0 -0.3
v 0.3 0.1 0.1
v 0.3 0.1 -0.3
v 0.4 1.7 -0.7
v 0.4 1.7 -0.9
v 0.4 2 -0.7
v 0.4 2 -0.8
v 0.4 2.5 -0.8
v 0.4 2.5 -0.9
v 0.6 1.3 0
v 0.6 1.3 -0.2
v 0.6 1.4 0
v 0.6 1.4 -0.2
v 0.6 1.9 0.7
v 0.6 1.9 0.5
v 0.6 2.7 0.5
v 0.6 2.7 0.3
v 0.6 2.8 0.7
v 0.6 2.8 0.3
v 0.7 1.4 0
v 0.7 1.4 -0.2
v 0.7 1.7 0
v 0.7 1.7 -0.2
v 0.7 2.7 0.3
v 0.7 2.7 0
v 0.7 2.8 0
v 0.7 2.8 -0.6
v 0.7 3 0.3
v 0.7 3 -0.6
v 0.9 1.7 0.5
v 0.9 1.7 -0.7
v 0.9 2 0
v 0.9 2 -0.7
v 0.9 2.7 0.5
v 0.9 2.7 0
v 1.1 2 0
v 1.1 2 -0.8
v 1.1 2.8 0
v 1.1 2.8 -0.8
v -0.4 1.9 0.7
v -0.4 2.8 0.7
v 0.6 1.9 0.7
v 0.6 2.8 0.7
v -0.4 1.7 0.5
v -0.4 1.9 0.5
v 0.6 1.9 0.5
v 0.6 2.7 0.5
v 0.9 1.7 0.5
v 0.9 2.7 0.5
v -0.2 2.8 0.3
v -0.2 3 0.3
v 0.6 2.7 0.3
v 0.6 2.8 0.3
v 0.7 2.7 0.3
v 0.7 3 0.3
v -0.1 0 0.1
v -0.1 0.1 0.1
v 0.3 0 0.1
v 0.3 0.1 0.1
v -5.96046e-08 0.1 0
v -5.96046e-08 1.7 0
v 0.2 0.1 0
v 0.2 1.3 0
v 0.2 1.5 0
v 0.2 1.7 0
v 0.5 1.5 0
v 0.5 1.7 0
v 0.6 1.3 0
v 0.6 1.4 0
v 0.7 1.4 0
v 0.7 1.7 0
v 0.7 2.7 0
v 0.7 2.8 0
v 0.9 2 0
v 0.9 2.7 0
v 1.1 2 0
v 1.1 2.8 0
v -0.6 1.7 -0.1
v -0.6 2.5 -0.1
v -0.4 1.7 -0.1
v -0.4 1.9 -0.1
v -0.4 2.5 -0.1
v -0.4 2.7 -0.1
v -0.4 2.8 -0.1
v -0.2 2.7 -0.1
v -0.2 2.8 -0.1
v -5.96046e-08 0.1 -0.2
v -5.96046e-08 1.7 -0.2
v 0.2 0.1 -0.2
v 0.2 1.3 -0.2
v 0.2 1.5 -0.2
v 0.2 1.7 -0.2
v 0.5 1.5 -0.2
v 0.5 1.7 -0.2
v 0.6 1.3 -0.2
v 0.6 1.4 -0.2
v 0.7 1.4 -0.2
v 0.7 1.7 -0.2
v -0.1 0 -0.3
v -0.1 0.1 -0.3
v 0.3 0 -0.3
v 0.3 0.1 -0.3
v -0.2 2.7 -0.6
v -0.2 3 -0.6
v 0.1 2.7 -0.6
v 0.1 2.8 -0.6
v 0.7 2.8 -0.6
v 0.7 3 -0.6
v -0.4 2.5 -0.7
v -0.4 2.7 -0.7
v 0.1 2.5 -0.7
v 0.1 2.7 -0.7
v 0.4 1.7 -0.7
v 0.4 2 -0.7
v 0.9 1.7 -0.7
v 0.9 2 -0.7
v 0.1 2.5 -0.8
v 0.1 2.8 -0.8
v 0.4 2 -0.8
v 0.4 2.5 -0.8
v 1.1 2 -0.8
v 1.1 2.8 -0.8
v -0.6 1.7 -0.9
v -0.6 2.5 -0.9
v 0.4 1.7 -0.9
v 0.4 2.5 -0.9
v -0.1 0 0.1
v 0.3 0 0.1
v -0.1 0 -0.3
v 0.3 0 -0.3
v 0.2 1.3 0
v 0.6 1.3 0
v 0.2 1.3 -0.2
v 0.6 1.3 -0.2
v 0.6 1.4 0
v 0.7 1.4 0
v 0.6 1.4 -0.2
v 0.7 1.4 -0.2
v -0.4 1.7 0.5
v 0.9 1.7 0.5
v -5.96046e-08 1.7 0
v 0.2 1.7 0
v 0.5 1.7 0
v 0.7 1.7 0
v -0.6 1.7 -0.1
v -0.4 1.7 -0.1
v -5.96046e-08 1.7 -0.1
v 0.2 1.7 -0.1
v 0.4 1.7 -0.1
v -5.96046e-08 1.7 -0.2
v 0.2 1.7 -0.2
v 0.5 1.7 -0.2
v 0.7 1.7 -0.2
v 0.4 1.7 -0.7
v 0.9 1.7 -0.7
v -0.6 1.7 -0.9
v 0.4 1.7 -0.9
v -0.4 1.9 0.7
v 0.6 1.9 0.7
v -0.4 1.9 0.5
v 0.6 1.9 0.5
v 0.9 2 0
v 1.1 2 0
v 0.4 2 -0.7
v 0.9 2 -0.7
v 0.4 2 -0.8
v 1.1 2 -0.8
v -0.1 0.1 0.1
v 0.3 0.1 0.1
v -5.96046e-08 0.1 0
v 0.2 0.1 0
v -5.96046e-08 0.1 -0.2
v 0.2 0.1 -0.2
v -0.1 0.1 -0.3
v 0.3 0.1 -0.3
v 0.2 1.5 0
v 0.5 1.5 0
v 0.2 1.5 -0.2
v 0.5 1.5 -0.2
v -0.6 2.5 -0.1
v -0.4 2.5 -0.1
v -0.4 2.5 -0.7
v 0.1 2.5 -0.7
v 0.1 2.5 -0.8
v 0.4 2.5 -0.8
v -0.6 2.5 -0.9
v 0.4 2.5 -0.9
v 0.6 2.7 0.5
v 0.9 2.7 0.5
v 0.6 2.7 0.3
v 0.7 2.7 0.3
v 0.7 2.7 0
v 0.9 2.7 0
v -0.4 2.7 -0.1
v -0.2 2.7 -0.1
v -0.2 2.7 -0.6
v 0.1 2.7 -0.6
v -0.4 2.7 -0.7
v 0.1 2.7 -0.7
v -0.4 2.8 0.7
v 0.6 2.8 0.7
v -0.2 2.8 0.3
v 0.6 2.8 0.3
v 0.7 2.8 0
v 1.1 2.8 0
v -0.4 2.8 -0.1
v -0.2 2.8 -0.1
v 0.1 2.8 -0.6
v 0.7 2.8 -0.6
v 0.1 2.8 -0.8
v 1.1 2.8 -0.8
v -0.2 3 0.3
v 0.7 3 0.3
v -0.2 3 -0.6
v 0.7 3 -0.6

# faces
f 3/2/1 2/2/1 1/2/1
f 4/2/1 2/2/1 3/2/1
f 8/5/1 6/5/1 5/5/1
f 9/5/1 6/5/1 8/5/1
f 10/4/1 8/4/1 7/4/1
f 10/4/1 9/4/1 8/4/1
f 12/4/1 10/4/1 7/4/1
f 12/5/1 11/5/1 10/5/1
f 13/5/1 11/5/1 12/5/1
f 14/4/1 12/4/1 7/4/1
f 15/4/1 12/4/1 14/4/1
f 19/3/1 17/3/1 16/3/1
f 20/3/1 19/3/1 18/3/1
f 21/3/1 17/3/1 19/3/1
f 21/3/1 19/3/1 20/3/1
f 24/1/1 23/1/1 22/1/1
f 25/1/1 23/1/1 24/1/1
f 28/1/1 27/1/1 26/1/1
f 29/1/1 27/1/1 28/1/1
f 30/1/1 27/1/1 29/1/1
f 34/4/1 32/4/1 31/4/1
f 35/4/1 34/4/1 33/4/1
f 36/4/1 32/4/1 34/4/1
f 36/4/1 34/4/1 35/4/1
f 39/1/1 38/1/1 37/1/1
f 40/1/1 38/1/1 39/1/1
f 41/1/2 42/1/2 43/1/2
f 43/1/2 42/1/2 44/1/2
f 45/1/2 46/1/2 47/1/2
f 47/1/2 46/1/2 48/1/2
f 48/1/2 46/1/2 49/1/2
f 50/1/2 51/1/2 52/1/2
f 52/1/2 51/1/2 53/1/2
f 54/2/2 55/2/2 56/2/2
f 56/2/2 55/2/2 57/2/2
f 57/2/2 55/2/2 58/2/2
f 58/2/2 55/2/2 59/2/2
f 60/1/2 61/1/2 62/1/2
f 62/1/2 61/1/2 63/1/2
f 64/4/2 65/4/2 66/4/2
f 64/4/2 66/4/2 68/4/2
f 66/4/2 67/4/2 68/4/2
f 68/4/2 67/4/2 69/4/2
f 70/1/2 71/1/2 72/1/2
f 72/1/2 71/1/2 73/1/2
f 74/3/2 75/3/2 76/3/2
f 74/3/2 76/3/2 78/3/2
f 76/3/2 77/3/2 78/3/2
f 78/3/2 77/3/2 79/3/2
f 80/5/2 81/5/2 82/5/2
f 82/5/2 81/5/2 83/5/2
f 80/5/2 82/5/2 84/5/2
f 84/5/2 82/5/2 85/5/2
f 86/4/2 87/4/2 88/4/2
f 88/4/2 87/4/2 89/4/2
f 92/4/3 91/4/3 90/4/3
f 93/4/3 91/4/3 92/4/3
f 96/5/3 95/5/3 94/5/3
f 98/5/3 96/5/3 94/5/3
f 98/5/3 97/5/3 96/5/3
f 99/5/3 97/5/3 98/5/3
f 103/3/3 101/3/3 100/3/3
f 104/3/3 103/3/3 102/3/3
f 105/3/3 101/3/3 103/3/3
f 105/3/3 103/3/3 104/3/3
f 108/1/3 107/1/3 106/1/3
f 109/1/3 107/1/3 108/1/3
f 112/1/3 111/1/3 110/1/3
f 113/1/3 111/1/3 112/1/3
f 114/1/3 111/1/3 113/1/3
f 115/1/3 111/1/3 114/1/3
f 116/1/3 114/1/3 113/1/3
f 118/1/3 116/1/3 113/1/3
f 118/1/3 117/1/3 116/1/3
f 119/1/3 117/1/3 118/1/3
f 120/1/3 117/1/3 119/1/3
f 121/1/3 117/1/3 120/1/3
f 125/4/3 123/4/3 122/4/3
f 126/4/3 125/4/3 124/4/3
f 127/4/3 123/4/3 125/4/3
f 127/4/3 125/4/3 126/4/3
f 130/2/3 129/2/3 128/2/3
f 131/2/3 129/2/3 130/2/3
f 132/2/3 129/2/3 131/2/3
f 133/4/4 134/4/4 135/4/4
f 135/4/4 134/4/4 136/4/4
f 137/1/4 138/1/4 139/1/4
f 139/1/4 138/1/4 140/1/4
f 140/1/4 138/1/4 141/1/4
f 141/1/4 138/1/4 142/1/4
f 140/1/4 141/1/4 143/1/4
f 140/1/4 143/1/4 145/1/4
f 143/1/4 144/1/4 145/1/4
f 145/1/4 144/1/4 146/1/4
f 146/1/4 144/1/4 147/1/4
f 147/1/4 144/1/4 148/1/4
f 149/1/4 150/1/4 151/1/4
f 151/1/4 150/1/4 152/1/4
f 153/3/4 154/3/4 155/3/4
f 155/3/4 154/3/4 156/3/4
f 156/3/4 154/3/4 157/3/4
f 157/3/4 154/3/4 158/3/4
f 159/5/4 160/5/4 161/5/4
f 161/5/4 160/5/4 162/5/4
f 163/5/4 164/5/4 165/5/4
f 165/5/4 164/5/4 166/5/4
f 167/4/4 168/4/4 170/4/4
f 169/4/4 170/4/4 171/4/4
f 170/4/4 168/4/4 172/4/4
f 171/4/4 170/4/4 172/4/4
f 173/2/4 174/2/4 175/2/4
f 175/2/4 174/2/4 176/2/4
f 179/1/5 178/1/5 177/1/5
f 180/1/5 178/1/5 179/1/5
f 183/1/5 182/1/5 181/1/5
f 184/1/5 182/1/5 183/1/5
f 187/1/5 186/1/5 185/1/5
f 188/1/5 186/1/5 187/1/5
f 191/5/5 190/5/5 189/5/5
f 192/5/5 190/5/5 191/5/5
f 193/5/5 190/5/5 192/5/5
f 194/5/5 190/5/5 193/5/5
f 196/5/5 191/5/5 189/5/5
f 197/5/5 191/5/5 196/5/5
f 198/5/5 193/5/5 192/5/5
f 199/5/5 193/5/5 198/5/5
f 200/2/5 197/2/5 196/2/5
f 200/2/5 196/2/5 195/2/5
f 201/2/5 199/2/5 198/2/5
f 202/5/5 193/5/5 199/5/5
f 203/5/5 190/5/5 194/5/5
f 204/2/5 201/2/5 200/2/5
f 204/5/5 203/5/5 202/5/5
f 204/5/5 202/5/5 199/5/5
f 204/2/5 199/2/5 201/2/5
f 205/5/5 190/5/5 203/5/5
f 205/5/5 203/5/5 204/5/5
f 206/2/5 204/2/5 200/2/5
f 206/2/5 200/2/5 195/2/5
f 207/2/5 204/2/5 206/2/5
f 210/4/5 209/4/5 208/4/5
f 211/4/5 209/4/5 210/4/5
f 215/4/5 213/4/5 212/4/5
f 216/4/5 215/4/5 214/4/5
f 217/4/5 213/4/5 215/4/5
f 217/4/5 215/4/5 216/4/5
f 218/1/6 219/1/6 220/1/6
f 220/1/6 219/1/6 221/1/6
f 218/1/6 220/1/6 222/1/6
f 221/1/6 219/1/6 223/1/6
f 218/1/6 222/1/6 224/1/6
f 222/1/6 223/1/6 224/1/6
f 223/1/6 219/1/6 225/1/6
f 224/1/6 223/1/6 225/1/6
f 226/1/6 227/1/6 228/1/6
f 228/1/6 227/1/6 229/1/6
f 230/2/6 231/2/6 232/2/6
f 232/2/6 233/2/6 234/2/6
f 230/2/6 232/2/6 236/2/6
f 234/2/6 235/2/6 236/2/6
f 232/2/6 234/2/6 236/2/6
f 236/2/6 235/2/6 237/2/6
f 238/5/6 239/5/6 240/5/6
f 240/5/6 239/5/6 241/5/6
f 241/5/6 239/5/6 242/5/6
f 242/5/6 239/5/6 243/5/6
f 244/5/6 245/5/6 246/5/6
f 244/5/6 246/5/6 248/5/6
f 246/5/6 247/5/6 248/5/6
f 248/5/6 247/5/6 249/5/6
f 250/4/6 251/4/6 252/4/6
f 252/4/6 251/4/6 253/4/6
f 250/4/6 252/4/6 256/4/6
f 256/4/6 252/4/6 257/4/6
f 254/4/6 255/4/6 259/4/6
f 258/4/6 259/4/6 260/4/6
f 259/4/6 255/4/6 261/4/6
f 260/4/6 259/4/6 261/4/6
f 262/3/6 263/3/6 264/3/6
f 264/3/6 263/3/6 265/3/6
