# MagicaVoxel @ Ephtracy

# group
o 

# material
mtllib Card.mtl
usemtl palette

# normals
vn -1 0 0
vn 1 0 0
vn 0 0 1
vn 0 0 -1
vn 0 -1 0
vn 0 1 0

# texcoords
vt 0.912109 0.5
vt 0.919922 0.5
vt 0.951172 0.5

# verts
v -0.8 0 -0.2
v -0.8 0 -0.6
v -0.8 0.1 -0.2
v -0.8 0.1 -0.6
v -0.7 0 -0.1
v -0.7 0 -0.2
v -0.7 0.1 -0.1
v -0.7 0.1 -0.2
v -0.7 0.1 -0.6
v -0.7 0.2 -0.2
v -0.7 0.2 -0.6
v -0.6 0 0.1
v -0.6 0 -0.1
v -0.6 0 -0.6
v -0.6 0 -0.7
v -0.6 0.1 0.1
v -0.6 0.1 0
v -0.6 0.1 -0.1
v -0.6 0.1 -0.2
v -0.6 0.1 -0.6
v -0.6 0.1 -0.7
v -0.6 0.1 -0.8
v -0.6 0.2 0
v -0.6 0.2 -0.2
v -0.6 0.2 -0.6
v -0.6 0.2 -0.8
v -0.5 0 0.2
v -0.5 0 0.1
v -0.5 0.1 0.2
v -0.5 0.1 0.1
v -0.5 0.1 0
v -0.5 0.2 0.1
v -0.5 0.2 0
v -0.2 0 0.2
v -0.2 0 0.1
v -0.2 0.1 0.2
v -0.2 0.1 0.1
v -0.2 0.1 0
v -0.2 0.2 0.1
v -0.2 0.2 0
v -0.1 0 0.1
v -0.1 0 0
v -0.1 0 -0.6
v -0.1 0 -0.7
v -0.1 0.1 0.1
v -0.1 0.1 0
v -0.1 0.1 -0.1
v -0.1 0.1 -0.6
v -0.1 0.1 -0.7
v -0.1 0.1 -0.8
v -0.1 0.2 0
v -0.1 0.2 -0.1
v -0.1 0.2 -0.6
v -0.1 0.2 -0.8
v 0 0 0
v 0 0 -0.2
v 0 0.1 0
v 0 0.1 -0.1
v 0 0.1 -0.2
v 0 0.1 -0.6
v 0 0.2 -0.1
v 0 0.2 -0.6
v 0.1 0 -0.2
v 0.1 0 -0.6
v 0.1 0.1 -0.2
v 0.1 0.1 -0.6
v -0.5 0 0.2
v -0.5 0.1 0.2
v -0.2 0 0.2
v -0.2 0.1 0.2
v -0.6 0 0.1
v -0.6 0.1 0.1
v -0.5 0 0.1
v -0.5 0.1 0.1
v -0.5 0.2 0.1
v -0.4 0.1 0.1
v -0.4 0.2 0.1
v -0.3 0.1 0.1
v -0.3 0.2 0.1
v -0.2 0 0.1
v -0.2 0.1 0.1
v -0.2 0.2 0.1
v -0.1 0 0.1
v -0.1 0.1 0.1
v -0.6 0.1 0
v -0.6 0.2 0
v -0.5 0.1 0
v -0.5 0.2 0
v -0.2 0.1 0
v -0.2 0.2 0
v -0.1 0 0
v -0.1 0.1 0
v -0.1 0.2 0
v 0 0 0
v 0 0.1 0
v -0.7 0 -0.1
v -0.7 0.1 -0.1
v -0.6 0 -0.1
v -0.6 0.1 -0.1
v -0.1 0.1 -0.1
v -0.1 0.2 -0.1
v 0 0.1 -0.1
v 0 0.2 -0.1
v -0.8 0 -0.2
v -0.8 0.1 -0.2
v -0.7 0 -0.2
v -0.7 0.1 -0.2
v -0.7 0.2 -0.2
v -0.6 0.1 -0.2
v -0.6 0.2 -0.2
v 0 0 -0.2
v 0 0.1 -0.2
v 0.1 0 -0.2
v 0.1 0.1 -0.2
v -0.8 0 -0.6
v -0.8 0.1 -0.6
v -0.7 0.1 -0.6
v -0.7 0.2 -0.6
v -0.6 0 -0.6
v -0.6 0.1 -0.6
v -0.6 0.2 -0.6
v -0.1 0 -0.6
v -0.1 0.1 -0.6
v -0.1 0.2 -0.6
v 0 0.1 -0.6
v 0 0.2 -0.6
v 0.1 0 -0.6
v 0.1 0.1 -0.6
v -0.6 0 -0.7
v -0.6 0.1 -0.7
v -0.5 0.1 -0.7
v -0.4 0.1 -0.7
v -0.3 0.1 -0.7
v -0.2 0.1 -0.7
v -0.1 0 -0.7
v -0.1 0.1 -0.7
v -0.6 0.1 -0.8
v -0.6 0.2 -0.8
v -0.5 0.1 -0.8
v -0.5 0.2 -0.8
v -0.4 0.1 -0.8
v -0.4 0.2 -0.8
v -0.3 0.1 -0.8
v -0.3 0.2 -0.8
v -0.2 0.1 -0.8
v -0.2 0.2 -0.8
v -0.1 0.1 -0.8
v -0.1 0.2 -0.8
v -0.5 0 0.2
v -0.2 0 0.2
v -0.6 0 0.1
v -0.5 0 0.1
v -0.2 0 0.1
v -0.1 0 0.1
v -0.1 0 0
v 0 0 0
v -0.7 0 -0.1
v -0.6 0 -0.1
v -0.8 0 -0.2
v -0.7 0 -0.2
v 0 0 -0.2
v 0.1 0 -0.2
v -0.8 0 -0.6
v -0.6 0 -0.6
v -0.1 0 -0.6
v 0.1 0 -0.6
v -0.6 0 -0.7
v -0.1 0 -0.7
v -0.6 0.1 -0.7
v -0.5 0.1 -0.7
v -0.4 0.1 -0.7
v -0.3 0.1 -0.7
v -0.2 0.1 -0.7
v -0.1 0.1 -0.7
v -0.6 0.1 -0.8
v -0.5 0.1 -0.8
v -0.4 0.1 -0.8
v -0.3 0.1 -0.8
v -0.2 0.1 -0.8
v -0.1 0.1 -0.8
v -0.5 0.1 0.2
v -0.2 0.1 0.2
v -0.6 0.1 0.1
v -0.5 0.1 0.1
v -0.4 0.1 0.1
v -0.3 0.1 0.1
v -0.2 0.1 0.1
v -0.1 0.1 0.1
v -0.6 0.1 0
v -0.5 0.1 0
v -0.2 0.1 0
v -0.1 0.1 0
v 0 0.1 0
v -0.7 0.1 -0.1
v -0.6 0.1 -0.1
v -0.1 0.1 -0.1
v 0 0.1 -0.1
v -0.8 0.1 -0.2
v -0.7 0.1 -0.2
v -0.6 0.1 -0.2
v 0 0.1 -0.2
v 0.1 0.1 -0.2
v -0.8 0.1 -0.6
v -0.7 0.1 -0.6
v 0 0.1 -0.6
v 0.1 0.1 -0.6
v -0.5 0.2 0.1
v -0.4 0.2 0.1
v -0.3 0.2 0.1
v -0.2 0.2 0.1
v -0.6 0.2 0
v -0.5 0.2 0
v -0.2 0.2 0
v -0.1 0.2 0
v -0.4 0.2 -0.1
v -0.3 0.2 -0.1
v -0.1 0.2 -0.1
v 0 0.2 -0.1
v -0.7 0.2 -0.2
v -0.6 0.2 -0.2
v -0.5 0.2 -0.2
v -0.2 0.2 -0.2
v -0.1 0.2 -0.2
v -0.6 0.2 -0.5
v -0.1 0.2 -0.5
v -0.7 0.2 -0.6
v -0.6 0.2 -0.6
v -0.5 0.2 -0.6
v -0.4 0.2 -0.6
v -0.3 0.2 -0.6
v -0.2 0.2 -0.6
v -0.1 0.2 -0.6
v 0 0.2 -0.6
v -0.6 0.2 -0.8
v -0.5 0.2 -0.8
v -0.4 0.2 -0.8
v -0.3 0.2 -0.8
v -0.2 0.2 -0.8
v -0.1 0.2 -0.8

# faces
f 3/3/1 2/3/1 1/3/1
f 4/3/1 2/3/1 3/3/1
f 7/3/1 6/3/1 5/3/1
f 8/3/1 6/3/1 7/3/1
f 10/3/1 9/3/1 8/3/1
f 11/3/1 9/3/1 10/3/1
f 16/3/1 13/3/1 12/3/1
f 17/3/1 13/3/1 16/3/1
f 18/3/1 13/3/1 17/3/1
f 20/3/1 15/3/1 14/3/1
f 21/3/1 15/3/1 20/3/1
f 23/3/1 19/3/1 18/3/1
f 23/3/1 18/3/1 17/3/1
f 24/3/1 19/3/1 23/3/1
f 25/1/1 22/1/1 21/1/1
f 25/1/1 21/1/1 20/1/1
f 26/1/1 22/1/1 25/1/1
f 29/3/1 28/3/1 27/3/1
f 30/3/1 28/3/1 29/3/1
f 32/2/1 31/2/1 30/2/1
f 33/2/1 31/2/1 32/2/1
f 34/3/2 35/3/2 36/3/2
f 36/3/2 35/3/2 37/3/2
f 37/2/2 38/2/2 39/2/2
f 39/2/2 38/2/2 40/2/2
f 41/3/2 42/3/2 45/3/2
f 45/3/2 42/3/2 46/3/2
f 43/3/2 44/3/2 48/3/2
f 48/3/2 44/3/2 49/3/2
f 46/3/2 47/3/2 51/3/2
f 51/3/2 47/3/2 52/3/2
f 49/1/2 50/1/2 53/1/2
f 48/1/2 49/1/2 53/1/2
f 53/1/2 50/1/2 54/1/2
f 55/3/2 56/3/2 57/3/2
f 57/3/2 56/3/2 58/3/2
f 58/3/2 56/3/2 59/3/2
f 59/3/2 60/3/2 61/3/2
f 58/3/2 59/3/2 61/3/2
f 61/3/2 60/3/2 62/3/2
f 63/3/2 64/3/2 65/3/2
f 65/3/2 64/3/2 66/3/2
f 69/3/3 68/3/3 67/3/3
f 70/3/3 68/3/3 69/3/3
f 73/3/3 72/3/3 71/3/3
f 74/3/3 72/3/3 73/3/3
f 76/2/3 75/2/3 74/2/3
f 77/2/3 75/2/3 76/2/3
f 78/3/3 77/3/3 76/3/3
f 79/3/3 77/3/3 78/3/3
f 81/2/3 79/2/3 78/2/3
f 82/2/3 79/2/3 81/2/3
f 83/3/3 81/3/3 80/3/3
f 84/3/3 81/3/3 83/3/3
f 87/3/3 86/3/3 85/3/3
f 88/3/3 86/3/3 87/3/3
f 92/3/3 90/3/3 89/3/3
f 93/3/3 90/3/3 92/3/3
f 94/3/3 92/3/3 91/3/3
f 95/3/3 92/3/3 94/3/3
f 98/3/3 97/3/3 96/3/3
f 99/3/3 97/3/3 98/3/3
f 102/3/3 101/3/3 100/3/3
f 103/3/3 101/3/3 102/3/3
f 106/3/3 105/3/3 104/3/3
f 107/3/3 105/3/3 106/3/3
f 109/3/3 108/3/3 107/3/3
f 110/3/3 108/3/3 109/3/3
f 113/3/3 112/3/3 111/3/3
f 114/3/3 112/3/3 113/3/3
f 115/3/4 116/3/4 117/3/4
f 115/3/4 117/3/4 119/3/4
f 117/3/4 118/3/4 119/3/4
f 119/3/4 118/3/4 120/3/4
f 120/3/4 118/3/4 121/3/4
f 122/3/4 123/3/4 125/3/4
f 123/3/4 124/3/4 125/3/4
f 125/3/4 124/3/4 126/3/4
f 122/3/4 125/3/4 127/3/4
f 127/3/4 125/3/4 128/3/4
f 129/3/4 130/3/4 131/3/4
f 129/3/4 131/3/4 132/3/4
f 129/3/4 132/3/4 133/3/4
f 129/3/4 133/3/4 134/3/4
f 129/3/4 134/3/4 135/3/4
f 135/3/4 134/3/4 136/3/4
f 137/1/4 138/1/4 139/1/4
f 139/1/4 138/1/4 140/1/4
f 139/3/4 140/3/4 141/3/4
f 141/3/4 140/3/4 142/3/4
f 141/1/4 142/1/4 143/1/4
f 143/1/4 142/1/4 144/1/4
f 143/3/4 144/3/4 145/3/4
f 145/3/4 144/3/4 146/3/4
f 145/1/4 146/1/4 147/1/4
f 147/1/4 146/1/4 148/1/4
f 152/3/5 150/3/5 149/3/5
f 153/3/5 150/3/5 152/3/5
f 155/3/5 152/3/5 151/3/5
f 155/3/5 154/3/5 153/3/5
f 155/3/5 153/3/5 152/3/5
f 158/3/5 155/3/5 151/3/5
f 158/3/5 156/3/5 155/3/5
f 160/3/5 158/3/5 157/3/5
f 161/3/5 156/3/5 158/3/5
f 161/3/5 158/3/5 160/3/5
f 163/3/5 160/3/5 159/3/5
f 163/3/5 162/3/5 161/3/5
f 163/3/5 161/3/5 160/3/5
f 164/3/5 162/3/5 163/3/5
f 165/3/5 162/3/5 164/3/5
f 166/3/5 162/3/5 165/3/5
f 167/3/5 165/3/5 164/3/5
f 168/3/5 165/3/5 167/3/5
f 175/1/5 170/1/5 169/1/5
f 176/3/5 171/3/5 170/3/5
f 176/1/5 170/1/5 175/1/5
f 177/1/5 172/1/5 171/1/5
f 177/3/5 171/3/5 176/3/5
f 178/3/5 173/3/5 172/3/5
f 178/1/5 172/1/5 177/1/5
f 179/1/5 174/1/5 173/1/5
f 179/3/5 173/3/5 178/3/5
f 180/1/5 174/1/5 179/1/5
f 181/3/6 182/3/6 184/3/6
f 184/3/6 182/3/6 185/3/6
f 185/3/6 182/3/6 186/3/6
f 186/3/6 182/3/6 187/3/6
f 183/3/6 184/3/6 189/3/6
f 189/3/6 184/3/6 190/3/6
f 187/3/6 188/3/6 191/3/6
f 191/3/6 188/3/6 192/3/6
f 192/3/6 193/3/6 196/3/6
f 196/3/6 193/3/6 197/3/6
f 194/3/6 195/3/6 199/3/6
f 199/3/6 195/3/6 200/3/6
f 198/3/6 199/3/6 203/3/6
f 203/3/6 199/3/6 204/3/6
f 201/3/6 202/3/6 205/3/6
f 205/3/6 202/3/6 206/3/6
f 207/2/6 208/2/6 212/2/6
f 209/2/6 210/2/6 213/2/6
f 208/3/6 209/3/6 215/3/6
f 212/2/6 208/2/6 215/2/6
f 209/2/6 213/2/6 216/2/6
f 215/3/6 209/3/6 216/3/6
f 213/3/6 214/3/6 217/3/6
f 211/3/6 212/3/6 220/3/6
f 212/2/6 215/2/6 221/2/6
f 215/2/6 216/2/6 221/2/6
f 220/3/6 212/3/6 221/3/6
f 217/3/6 218/3/6 222/3/6
f 221/2/6 216/2/6 222/2/6
f 216/2/6 213/2/6 222/2/6
f 213/3/6 217/3/6 222/3/6
f 222/3/6 218/3/6 223/3/6
f 220/2/6 221/2/6 224/2/6
f 219/3/6 220/3/6 224/3/6
f 222/2/6 223/2/6 224/2/6
f 221/2/6 222/2/6 224/2/6
f 223/3/6 218/3/6 225/3/6
f 224/2/6 223/2/6 225/2/6
f 219/3/6 224/3/6 226/3/6
f 224/3/6 225/3/6 226/3/6
f 226/3/6 225/3/6 227/3/6
f 227/3/6 225/3/6 228/3/6
f 228/3/6 225/3/6 229/3/6
f 229/3/6 225/3/6 230/3/6
f 230/3/6 225/3/6 231/3/6
f 225/3/6 218/3/6 232/3/6
f 231/3/6 225/3/6 232/3/6
f 232/3/6 218/3/6 233/3/6
f 227/1/6 228/1/6 234/1/6
f 228/3/6 229/3/6 235/3/6
f 234/1/6 228/1/6 235/1/6
f 229/1/6 230/1/6 236/1/6
f 235/3/6 229/3/6 236/3/6
f 230/3/6 231/3/6 237/3/6
f 236/1/6 230/1/6 237/1/6
f 231/1/6 232/1/6 238/1/6
f 237/3/6 231/3/6 238/3/6
f 238/1/6 232/1/6 239/1/6
