# MagicaVoxel @ Ephtracy

# group
o 

# material
mtllib Tree1.mtl
usemtl palette

# normals
vn -1 0 0
vn 1 0 0
vn 0 0 1
vn 0 0 -1
vn 0 -1 0
vn 0 1 0

# texcoords
vt 0.771484 0.5
vt 0.884766 0.5
vt 0.927734 0.5
vt 0.947266 0.5

# verts
v -0.7 1.8 0.4
v -0.7 1.8 -0.2
v -0.7 2.4 0.4
v -0.7 2.4 -0.2
v -0.5 1.2 0.2
v -0.5 1.2 -0.7
v -0.5 1.6 0.2
v -0.5 1.6 -0.4
v -0.5 1.8 0.2
v -0.5 1.8 -0.2
v -0.5 2.2 -0.2
v -0.5 2.2 -0.4
v -0.5 2.2 -0.7
v -0.2 0 -0.1
v -0.2 0 -0.5
v -0.2 0.1 -0.1
v -0.2 0.1 -0.5
v -0.1 0.1 -0.2
v -0.1 0.1 -0.4
v -0.1 1.2 -0.2
v -0.1 1.2 -0.4
v -0.1 1.7 -0.7
v -0.1 1.7 -0.8
v -0.1 2.2 -0.2
v -0.1 2.2 -0.4
v -0.1 2.2 -0.7
v -0.1 2.3 -0.2
v -0.1 2.3 -0.8
v 0.2 1.1 -0.4
v 0.2 1.1 -0.8
v 0.2 1.2 -0.4
v 0.2 1.2 -0.7
v 0.2 1.5 -0.7
v 0.2 1.5 -0.8
v -0.1 1.8 0.4
v -0.1 1.8 0.2
v -0.1 2.2 0.2
v -0.1 2.2 -0.1
v -0.1 2.3 -0.1
v -0.1 2.3 -0.2
v -0.1 2.4 0.4
v -0.1 2.4 -0.2
v 0.1 0.1 -0.2
v 0.1 0.1 -0.4
v 0.1 1.2 -0.2
v 0.1 1.2 -0.4
v 0.2 0 -0.1
v 0.2 0 -0.5
v 0.2 0.1 -0.1
v 0.2 0.1 -0.5
v 0.5 1.2 0.2
v 0.5 1.2 -0.4
v 0.5 1.5 -0.4
v 0.5 1.5 -0.7
v 0.5 1.7 -0.1
v 0.5 1.7 -0.7
v 0.5 2.2 0.2
v 0.5 2.2 -0.1
v 0.6 1.1 -0.4
v 0.6 1.1 -0.8
v 0.6 1.5 -0.4
v 0.6 1.5 -0.8
v 0.6 1.7 -0.1
v 0.6 1.7 -0.8
v 0.6 2.3 -0.1
v 0.6 2.3 -0.8
v -0.7 1.8 0.4
v -0.7 2.4 0.4
v -0.1 1.8 0.4
v -0.1 2.4 0.4
v -0.5 1.2 0.2
v -0.5 1.6 0.2
v -0.5 1.8 0.2
v -0.1 1.8 0.2
v -0.1 2.2 0.2
v 0.1 1.6 0.2
v 0.1 2.2 0.2
v 0.5 1.2 0.2
v 0.5 2.2 0.2
v -0.2 0 -0.1
v -0.2 0.1 -0.1
v -0.1 2.2 -0.1
v -0.1 2.3 -0.1
v 0.1 2.2 -0.1
v 0.2 0 -0.1
v 0.2 0.1 -0.1
v 0.5 1.7 -0.1
v 0.5 2.2 -0.1
v 0.6 1.7 -0.1
v 0.6 2.3 -0.1
v -0.1 0.1 -0.2
v -0.1 1.2 -0.2
v 0.1 0.1 -0.2
v 0.1 1.2 -0.2
v 0.2 1.1 -0.4
v 0.2 1.2 -0.4
v 0.5 1.2 -0.4
v 0.5 1.5 -0.4
v 0.6 1.1 -0.4
v 0.6 1.5 -0.4
v -0.7 1.8 -0.2
v -0.7 2.4 -0.2
v -0.5 1.8 -0.2
v -0.5 2.2 -0.2
v -0.1 2.2 -0.2
v -0.1 2.3 -0.2
v -0.1 2.4 -0.2
v -0.1 0.1 -0.4
v -0.1 1.2 -0.4
v 0.1 0.1 -0.4
v 0.1 1.2 -0.4
v -0.2 0 -0.5
v -0.2 0.1 -0.5
v 0.2 0 -0.5
v 0.2 0.1 -0.5
v -0.5 1.2 -0.7
v -0.5 2.2 -0.7
v -0.1 1.7 -0.7
v -0.1 2.2 -0.7
v 0.2 1.2 -0.7
v 0.2 1.5 -0.7
v 0.5 1.5 -0.7
v 0.5 1.7 -0.7
v -0.1 1.7 -0.8
v -0.1 2.3 -0.8
v 0.2 1.1 -0.8
v 0.2 1.5 -0.8
v 0.6 1.1 -0.8
v 0.6 1.5 -0.8
v 0.6 1.7 -0.8
v 0.6 2.3 -0.8
v -0.2 0 -0.1
v 0.2 0 -0.1
v -0.2 0 -0.5
v 0.2 0 -0.5
v 0.2 1.1 -0.4
v 0.6 1.1 -0.4
v 0.2 1.1 -0.8
v 0.6 1.1 -0.8
v -0.5 1.2 0.2
v 0.5 1.2 0.2
v -0.1 1.2 -0.2
v 0.1 1.2 -0.2
v -0.1 1.2 -0.4
v 0.1 1.2 -0.4
v 0.2 1.2 -0.4
v 0.5 1.2 -0.4
v -0.5 1.2 -0.7
v 0.2 1.2 -0.7
v 0.5 1.7 -0.1
v 0.6 1.7 -0.1
v -0.1 1.7 -0.7
v 0.5 1.7 -0.7
v -0.1 1.7 -0.8
v 0.6 1.7 -0.8
v -0.7 1.8 0.4
v -0.1 1.8 0.4
v -0.5 1.8 0.2
v -0.1 1.8 0.2
v -0.7 1.8 -0.2
v -0.5 1.8 -0.2
v -0.2 0.1 -0.1
v 0.2 0.1 -0.1
v -0.1 0.1 -0.2
v 0.1 0.1 -0.2
v -0.1 0.1 -0.4
v 0.1 0.1 -0.4
v -0.2 0.1 -0.5
v 0.2 0.1 -0.5
v 0.5 1.5 -0.4
v 0.6 1.5 -0.4
v 0.2 1.5 -0.7
v 0.5 1.5 -0.7
v 0.2 1.5 -0.8
v 0.6 1.5 -0.8
v -0.1 2.2 0.2
v 0.1 2.2 0.2
v 0.5 2.2 0.2
v -0.1 2.2 -0.1
v 0.1 2.2 -0.1
v 0.5 2.2 -0.1
v -0.5 2.2 -0.2
v -0.1 2.2 -0.2
v -0.5 2.2 -0.4
v -0.1 2.2 -0.4
v -0.5 2.2 -0.7
v -0.1 2.2 -0.7
v -0.1 2.3 -0.1
v 0.6 2.3 -0.1
v -0.1 2.3 -0.2
v -0.1 2.3 -0.8
v 0.6 2.3 -0.8
v -0.7 2.4 0.4
v -0.1 2.4 0.4
v -0.7 2.4 -0.2
v -0.1 2.4 -0.2

# faces
f 3/4/1 2/4/1 1/4/1
f 4/4/1 2/4/1 3/4/1
f 7/2/1 6/2/1 5/2/1
f 8/2/1 6/2/1 7/2/1
f 9/4/1 8/4/1 7/4/1
f 10/4/1 8/4/1 9/4/1
f 11/4/1 8/4/1 10/4/1
f 12/2/1 6/2/1 8/2/1
f 12/4/1 8/4/1 11/4/1
f 13/2/1 6/2/1 12/2/1
f 16/1/1 15/1/1 14/1/1
f 17/1/1 15/1/1 16/1/1
f 20/1/1 19/1/1 18/1/1
f 21/1/1 19/1/1 20/1/1
f 26/3/1 23/3/1 22/3/1
f 27/3/1 25/3/1 24/3/1
f 27/3/1 26/3/1 25/3/1
f 28/3/1 23/3/1 26/3/1
f 28/3/1 26/3/1 27/3/1
f 31/2/1 30/2/1 29/2/1
f 32/2/1 30/2/1 31/2/1
f 33/2/1 30/2/1 32/2/1
f 34/2/1 30/2/1 33/2/1
f 35/4/2 36/4/2 37/4/2
f 37/4/2 38/4/2 39/4/2
f 35/4/2 37/4/2 41/4/2
f 39/4/2 40/4/2 41/4/2
f 37/4/2 39/4/2 41/4/2
f 41/4/2 40/4/2 42/4/2
f 43/1/2 44/1/2 45/1/2
f 45/1/2 44/1/2 46/1/2
f 47/1/2 48/1/2 49/1/2
f 49/1/2 48/1/2 50/1/2
f 51/2/2 52/2/2 53/2/2
f 51/2/2 53/2/2 55/2/2
f 53/2/2 54/2/2 55/2/2
f 55/2/2 54/2/2 56/2/2
f 51/2/2 55/2/2 57/2/2
f 57/2/2 55/2/2 58/2/2
f 59/2/2 60/2/2 61/2/2
f 61/2/2 60/2/2 62/2/2
f 63/3/2 64/3/2 65/3/2
f 65/3/2 64/3/2 66/3/2
f 69/4/3 68/4/3 67/4/3
f 70/4/3 68/4/3 69/4/3
f 74/4/3 73/4/3 72/4/3
f 76/2/3 72/2/3 71/2/3
f 76/4/3 75/4/3 74/4/3
f 76/4/3 74/4/3 72/4/3
f 77/4/3 75/4/3 76/4/3
f 78/2/3 76/2/3 71/2/3
f 78/2/3 77/2/3 76/2/3
f 79/2/3 77/2/3 78/2/3
f 84/3/3 83/3/3 82/3/3
f 85/1/3 81/1/3 80/1/3
f 86/1/3 81/1/3 85/1/3
f 88/3/3 83/3/3 84/3/3
f 89/3/3 88/3/3 87/3/3
f 90/3/3 83/3/3 88/3/3
f 90/3/3 88/3/3 89/3/3
f 93/1/3 92/1/3 91/1/3
f 94/1/3 92/1/3 93/1/3
f 97/2/3 96/2/3 95/2/3
f 99/2/3 97/2/3 95/2/3
f 99/2/3 98/2/3 97/2/3
f 100/2/3 98/2/3 99/2/3
f 101/4/4 102/4/4 103/4/4
f 103/4/4 102/4/4 104/4/4
f 104/4/4 102/4/4 105/4/4
f 105/4/4 102/4/4 106/4/4
f 106/4/4 102/4/4 107/4/4
f 108/1/4 109/1/4 110/1/4
f 110/1/4 109/1/4 111/1/4
f 112/1/4 113/1/4 114/1/4
f 114/1/4 113/1/4 115/1/4
f 116/2/4 117/2/4 118/2/4
f 118/2/4 117/2/4 119/2/4
f 116/2/4 118/2/4 120/2/4
f 120/2/4 118/2/4 121/2/4
f 121/2/4 118/2/4 122/2/4
f 122/2/4 118/2/4 123/2/4
f 126/2/4 127/2/4 128/2/4
f 128/2/4 127/2/4 129/2/4
f 124/3/4 125/3/4 130/3/4
f 130/3/4 125/3/4 131/3/4
f 134/1/5 133/1/5 132/1/5
f 135/1/5 133/1/5 134/1/5
f 138/2/5 137/2/5 136/2/5
f 139/2/5 137/2/5 138/2/5
f 142/2/5 141/2/5 140/2/5
f 143/2/5 141/2/5 142/2/5
f 144/2/5 142/2/5 140/2/5
f 145/2/5 141/2/5 143/2/5
f 146/2/5 141/2/5 145/2/5
f 147/2/5 141/2/5 146/2/5
f 148/2/5 144/2/5 140/2/5
f 148/2/5 145/2/5 144/2/5
f 148/2/5 146/2/5 145/2/5
f 149/2/5 146/2/5 148/2/5
f 153/3/5 151/3/5 150/3/5
f 154/3/5 153/3/5 152/3/5
f 155/3/5 151/3/5 153/3/5
f 155/3/5 153/3/5 154/3/5
f 158/4/5 157/4/5 156/4/5
f 159/4/5 157/4/5 158/4/5
f 160/4/5 158/4/5 156/4/5
f 161/4/5 158/4/5 160/4/5
f 162/1/6 163/1/6 164/1/6
f 164/1/6 163/1/6 165/1/6
f 162/1/6 164/1/6 166/1/6
f 165/1/6 163/1/6 167/1/6
f 162/1/6 166/1/6 168/1/6
f 166/1/6 167/1/6 168/1/6
f 167/1/6 163/1/6 169/1/6
f 168/1/6 167/1/6 169/1/6
f 170/2/6 171/2/6 173/2/6
f 172/2/6 173/2/6 174/2/6
f 173/2/6 171/2/6 175/2/6
f 174/2/6 173/2/6 175/2/6
f 176/4/6 177/4/6 179/4/6
f 177/2/6 178/2/6 180/2/6
f 179/4/6 177/4/6 180/4/6
f 180/2/6 178/2/6 181/2/6
f 182/4/6 183/4/6 184/4/6
f 184/4/6 183/4/6 185/4/6
f 184/2/6 185/2/6 186/2/6
f 186/2/6 185/2/6 187/2/6
f 188/3/6 189/3/6 190/3/6
f 190/3/6 189/3/6 191/3/6
f 191/3/6 189/3/6 192/3/6
f 193/4/6 194/4/6 195/4/6
f 195/4/6 194/4/6 196/4/6
