# MagicaVoxel @ Ephtracy

# group
o 

# material
mtllib Battery.mtl
usemtl palette

# normals
vn -1 0 0
vn 1 0 0
vn 0 0 1
vn 0 0 -1
vn 0 -1 0
vn 0 1 0

# texcoords
vt 0.701172 0.5
vt 0.857422 0.5
vt 0.919922 0.5
vt 0.923828 0.5
vt 0.943359 0.5
vt 0.951172 0.5

# verts
v -0.3 0.2 0
v -0.3 0.2 -0.3
v -0.3 0.4 0
v -0.3 0.4 -0.3
v -0.3 0.5 0
v -0.3 0.5 -0.3
v -0.3 0.7 0
v -0.3 0.7 -0.3
v -0.3 0.8 0
v -0.3 0.8 -0.3
v -0.3 1 0
v -0.3 1 -0.3
v -0.3 1.1 0
v -0.3 1.1 -0.3
v -0.3 1.3 0
v -0.3 1.3 -0.3
v -0.2 0.1 0.1
v -0.2 0.1 0
v -0.2 0.1 -0.2
v -0.2 0.2 0.1
v -0.2 0.2 0
v -0.2 0.2 -0.2
v -0.2 0.2 -0.3
v -0.2 0.2 -0.4
v -0.2 0.4 0.1
v -0.2 0.4 0
v -0.2 0.4 -0.3
v -0.2 0.4 -0.4
v -0.2 0.5 0.1
v -0.2 0.5 0
v -0.2 0.5 -0.3
v -0.2 0.5 -0.4
v -0.2 0.7 0.1
v -0.2 0.7 0
v -0.2 0.7 -0.3
v -0.2 0.7 -0.4
v -0.2 0.8 0.1
v -0.2 0.8 0
v -0.2 0.8 -0.3
v -0.2 0.8 -0.4
v -0.2 1 0.1
v -0.2 1 0
v -0.2 1 -0.3
v -0.2 1 -0.4
v -0.2 1.1 0.1
v -0.2 1.1 0
v -0.2 1.1 -0.3
v -0.2 1.1 -0.4
v -0.2 1.2 0.4
v -0.2 1.2 0.2
v -0.2 1.3 0.3
v -0.2 1.3 0.2
v -0.2 1.3 0.1
v -0.2 1.3 0
v -0.2 1.3 -0.1
v -0.2 1.3 -0.2
v -0.2 1.3 -0.3
v -0.2 1.3 -0.4
v -0.2 1.4 0.4
v -0.2 1.4 0.3
v -0.2 1.4 0
v -0.2 1.4 -0.1
v -0.2 1.4 -0.2
v -0.1 0 0
v -0.1 0 -0.2
v -0.1 0.1 0.4
v -0.1 0.1 0.2
v -0.1 0.1 0
v -0.1 0.1 -0.2
v -0.1 0.1 -0.3
v -0.1 0.2 0.2
v -0.1 0.2 0.1
v -0.1 0.2 -0.2
v -0.1 0.2 -0.3
v -0.1 0.3 0.4
v -0.1 0.3 0.1
v -0.1 1.2 0.2
v -0.1 1.2 0.1
v -0.1 1.3 0.3
v -0.1 1.3 0.2
v -0.1 1.3 0.1
v -0.1 1.3 -0.2
v -0.1 1.3 -0.3
v -0.1 1.4 0.4
v -0.1 1.4 0.3
v -0.1 1.4 0.2
v -0.1 1.4 -0.1
v -0.1 1.4 -0.2
v -0.1 1.4 -0.3
v -0.1 1.5 0.4
v -0.1 1.5 0.3
v -0.1 1.5 -0.1
v -0.1 1.5 -0.2
v 0.1 0 0
v 0.1 0 -0.2
v 0.1 0.1 0.4
v 0.1 0.1 0.2
v 0.1 0.1 0
v 0.1 0.1 -0.2
v 0.1 0.1 -0.3
v 0.1 0.2 0.2
v 0.1 0.2 0.1
v 0.1 0.2 -0.2
v 0.1 0.2 -0.3
v 0.1 0.3 0.4
v 0.1 0.3 0.1
v 0.1 1.2 0.2
v 0.1 1.2 0.1
v 0.1 1.3 0.3
v 0.1 1.3 0.2
v 0.1 1.3 0.1
v 0.1 1.3 -0.2
v 0.1 1.3 -0.3
v 0.1 1.4 0.4
v 0.1 1.4 0.3
v 0.1 1.4 0.2
v 0.1 1.4 -0.1
v 0.1 1.4 -0.2
v 0.1 1.4 -0.3
v 0.1 1.5 0.4
v 0.1 1.5 0.3
v 0.1 1.5 -0.1
v 0.1 1.5 -0.2
v 0.2 0.1 0.1
v 0.2 0.1 0
v 0.2 0.1 -0.2
v 0.2 0.2 0.1
v 0.2 0.2 0
v 0.2 0.2 -0.2
v 0.2 0.2 -0.3
v 0.2 0.2 -0.4
v 0.2 0.4 0.1
v 0.2 0.4 0
v 0.2 0.4 -0.3
v 0.2 0.4 -0.4
v 0.2 0.5 0.1
v 0.2 0.5 0
v 0.2 0.5 -0.3
v 0.2 0.5 -0.4
v 0.2 0.7 0.1
v 0.2 0.7 0
v 0.2 0.7 -0.3
v 0.2 0.7 -0.4
v 0.2 0.8 0.1
v 0.2 0.8 0
v 0.2 0.8 -0.3
v 0.2 0.8 -0.4
v 0.2 1 0.1
v 0.2 1 0
v 0.2 1 -0.3
v 0.2 1 -0.4
v 0.2 1.1 0.1
v 0.2 1.1 0
v 0.2 1.1 -0.3
v 0.2 1.1 -0.4
v 0.2 1.2 0.4
v 0.2 1.2 0.2
v 0.2 1.3 0.3
v 0.2 1.3 0.2
v 0.2 1.3 0.1
v 0.2 1.3 0
v 0.2 1.3 -0.1
v 0.2 1.3 -0.2
v 0.2 1.3 -0.3
v 0.2 1.3 -0.4
v 0.2 1.4 0.4
v 0.2 1.4 0.3
v 0.2 1.4 0
v 0.2 1.4 -0.1
v 0.2 1.4 -0.2
v 0.3 0.2 0
v 0.3 0.2 -0.3
v 0.3 0.4 0
v 0.3 0.4 -0.3
v 0.3 0.5 0
v 0.3 0.5 -0.3
v 0.3 0.7 0
v 0.3 0.7 -0.3
v 0.3 0.8 0
v 0.3 0.8 -0.3
v 0.3 1 0
v 0.3 1 -0.3
v 0.3 1.1 0
v 0.3 1.1 -0.3
v 0.3 1.3 0
v 0.3 1.3 -0.3
v -0.2 1.2 0.4
v -0.2 1.4 0.4
v -0.1 0.1 0.4
v -0.1 0.3 0.4
v -0.1 1.4 0.4
v -0.1 1.5 0.4
v 0.1 0.1 0.4
v 0.1 0.3 0.4
v 0.1 1.4 0.4
v 0.1 1.5 0.4
v 0.2 1.2 0.4
v 0.2 1.4 0.4
v -0.2 0.1 0.1
v -0.2 0.2 0.1
v -0.2 0.4 0.1
v -0.2 0.5 0.1
v -0.2 0.7 0.1
v -0.2 0.8 0.1
v -0.2 1 0.1
v -0.2 1.1 0.1
v -0.2 1.3 0.1
v -0.1 0.1 0.1
v -0.1 0.2 0.1
v -0.1 0.3 0.1
v -0.1 1.1 0.1
v -0.1 1.2 0.1
v -0.1 1.3 0.1
v 0.1 0.1 0.1
v 0.1 0.2 0.1
v 0.1 0.3 0.1
v 0.1 1.1 0.1
v 0.1 1.2 0.1
v 0.1 1.3 0.1
v 0.2 0.1 0.1
v 0.2 0.2 0.1
v 0.2 0.4 0.1
v 0.2 0.5 0.1
v 0.2 0.7 0.1
v 0.2 0.8 0.1
v 0.2 1 0.1
v 0.2 1.1 0.1
v 0.2 1.3 0.1
v -0.3 0.2 0
v -0.3 0.4 0
v -0.3 0.5 0
v -0.3 0.7 0
v -0.3 0.8 0
v -0.3 1 0
v -0.3 1.1 0
v -0.3 1.3 0
v -0.2 0.2 0
v -0.2 0.4 0
v -0.2 0.5 0
v -0.2 0.7 0
v -0.2 0.8 0
v -0.2 1 0
v -0.2 1.1 0
v -0.2 1.3 0
v -0.2 1.4 0
v -0.1 0 0
v -0.1 0.1 0
v -0.1 1.1 0
v -0.1 1.3 0
v -0.1 1.4 0
v 0.1 0 0
v 0.1 0.1 0
v 0.1 1.1 0
v 0.1 1.3 0
v 0.1 1.4 0
v 0.2 0.2 0
v 0.2 0.4 0
v 0.2 0.5 0
v 0.2 0.7 0
v 0.2 0.8 0
v 0.2 1 0
v 0.2 1.1 0
v 0.2 1.3 0
v 0.2 1.4 0
v 0.3 0.2 0
v 0.3 0.4 0
v 0.3 0.5 0
v 0.3 0.7 0
v 0.3 0.8 0
v 0.3 1 0
v 0.3 1.1 0
v 0.3 1.3 0
v -0.1 1.4 -0.1
v -0.1 1.5 -0.1
v 0.1 1.4 -0.1
v 0.1 1.5 -0.1
v -0.2 1.3 0.3
v -0.2 1.4 0.3
v -0.1 1.3 0.3
v -0.1 1.4 0.3
v -0.1 1.5 0.3
v 0.1 1.3 0.3
v 0.1 1.4 0.3
v 0.1 1.5 0.3
v 0.2 1.3 0.3
v 0.2 1.4 0.3
v -0.2 1.2 0.2
v -0.2 1.3 0.2
v -0.1 0.1 0.2
v -0.1 0.2 0.2
v -0.1 1.2 0.2
v -0.1 1.3 0.2
v -0.1 1.4 0.2
v 0.1 0.1 0.2
v 0.1 0.2 0.2
v 0.1 1.2 0.2
v 0.1 1.3 0.2
v 0.1 1.4 0.2
v 0.2 1.2 0.2
v 0.2 1.3 0.2
v -0.2 0.1 -0.2
v -0.2 0.2 -0.2
v -0.2 1.3 -0.2
v -0.2 1.4 -0.2
v -0.1 0 -0.2
v -0.1 0.1 -0.2
v -0.1 0.2 -0.2
v -0.1 1.3 -0.2
v -0.1 1.4 -0.2
v -0.1 1.5 -0.2
v 0.1 0 -0.2
v 0.1 0.1 -0.2
v 0.1 0.2 -0.2
v 0.1 1.3 -0.2
v 0.1 1.4 -0.2
v 0.1 1.5 -0.2
v 0.2 0.1 -0.2
v 0.2 0.2 -0.2
v 0.2 1.3 -0.2
v 0.2 1.4 -0.2
v -0.3 0.2 -0.3
v -0.3 0.4 -0.3
v -0.3 0.5 -0.3
v -0.3 0.7 -0.3
v -0.3 0.8 -0.3
v -0.3 1 -0.3
v -0.3 1.1 -0.3
v -0.3 1.3 -0.3
v -0.2 0.2 -0.3
v -0.2 0.4 -0.3
v -0.2 0.5 -0.3
v -0.2 0.7 -0.3
v -0.2 0.8 -0.3
v -0.2 1 -0.3
v -0.2 1.1 -0.3
v -0.2 1.3 -0.3
v -0.1 0.1 -0.3
v -0.1 0.2 -0.3
v -0.1 1.3 -0.3
v -0.1 1.4 -0.3
v 0.1 0.1 -0.3
v 0.1 0.2 -0.3
v 0.1 1.3 -0.3
v 0.1 1.4 -0.3
v 0.2 0.2 -0.3
v 0.2 0.4 -0.3
v 0.2 0.5 -0.3
v 0.2 0.7 -0.3
v 0.2 0.8 -0.3
v 0.2 1 -0.3
v 0.2 1.1 -0.3
v 0.2 1.3 -0.3
v 0.3 0.2 -0.3
v 0.3 0.4 -0.3
v 0.3 0.5 -0.3
v 0.3 0.7 -0.3
v 0.3 0.8 -0.3
v 0.3 1 -0.3
v 0.3 1.1 -0.3
v 0.3 1.3 -0.3
v -0.2 0.2 -0.4
v -0.2 0.4 -0.4
v -0.2 0.5 -0.4
v -0.2 0.7 -0.4
v -0.2 0.8 -0.4
v -0.2 1 -0.4
v -0.2 1.1 -0.4
v -0.2 1.3 -0.4
v 0.2 0.2 -0.4
v 0.2 0.4 -0.4
v 0.2 0.5 -0.4
v 0.2 0.7 -0.4
v 0.2 0.8 -0.4
v 0.2 1 -0.4
v 0.2 1.1 -0.4
v 0.2 1.3 -0.4
v -0.1 0 0
v 0.1 0 0
v -0.1 0 -0.2
v 0.1 0 -0.2
v -0.1 0.1 0.4
v 0.1 0.1 0.4
v -0.1 0.1 0.2
v 0.1 0.1 0.2
v -0.2 0.1 0.1
v -0.1 0.1 0.1
v 0.1 0.1 0.1
v 0.2 0.1 0.1
v -0.2 0.1 0
v -0.1 0.1 0
v 0.1 0.1 0
v 0.2 0.1 0
v -0.2 0.1 -0.2
v -0.1 0.1 -0.2
v 0.1 0.1 -0.2
v 0.2 0.1 -0.2
v -0.1 0.1 -0.3
v 0.1 0.1 -0.3
v -0.1 0.2 0.2
v 0.1 0.2 0.2
v -0.1 0.2 0.1
v 0.1 0.2 0.1
v -0.3 0.2 0
v -0.2 0.2 0
v 0.2 0.2 0
v 0.3 0.2 0
v -0.2 0.2 -0.2
v -0.1 0.2 -0.2
v 0.1 0.2 -0.2
v 0.2 0.2 -0.2
v -0.3 0.2 -0.3
v -0.2 0.2 -0.3
v -0.1 0.2 -0.3
v 0.1 0.2 -0.3
v 0.2 0.2 -0.3
v 0.3 0.2 -0.3
v -0.2 0.2 -0.4
v 0.2 0.2 -0.4
v -0.2 0.5 0.1
v 0.2 0.5 0.1
v -0.3 0.5 0
v -0.2 0.5 0
v 0.2 0.5 0
v 0.3 0.5 0
v -0.3 0.5 -0.3
v -0.2 0.5 -0.3
v 0.2 0.5 -0.3
v 0.3 0.5 -0.3
v -0.2 0.5 -0.4
v 0.2 0.5 -0.4
v -0.2 0.8 0.1
v 0.2 0.8 0.1
v -0.3 0.8 0
v -0.2 0.8 0
v 0.2 0.8 0
v 0.3 0.8 0
v -0.3 0.8 -0.3
v -0.2 0.8 -0.3
v 0.2 0.8 -0.3
v 0.3 0.8 -0.3
v -0.2 0.8 -0.4
v 0.2 0.8 -0.4
v -0.2 1.1 0.1
v -0.1 1.1 0.1
v 0.1 1.1 0.1
v 0.2 1.1 0.1
v -0.3 1.1 0
v -0.2 1.1 0
v -0.1 1.1 0
v 0.1 1.1 0
v 0.2 1.1 0
v 0.3 1.1 0
v -0.3 1.1 -0.3
v -0.2 1.1 -0.3
v 0.2 1.1 -0.3
v 0.3 1.1 -0.3
v -0.2 1.1 -0.4
v 0.2 1.1 -0.4
v -0.2 1.2 0.4
v 0.2 1.2 0.4
v -0.2 1.2 0.2
v -0.1 1.2 0.2
v 0.1 1.2 0.2
v 0.2 1.2 0.2
v -0.1 1.2 0.1
v 0.1 1.2 0.1
v -0.1 0.3 0.4
v 0.1 0.3 0.4
v -0.1 0.3 0.1
v 0.1 0.3 0.1
v -0.2 0.4 0.1
v 0.2 0.4 0.1
v -0.3 0.4 0
v -0.2 0.4 0
v 0.2 0.4 0
v 0.3 0.4 0
v -0.3 0.4 -0.3
v -0.2 0.4 -0.3
v 0.2 0.4 -0.3
v 0.3 0.4 -0.3
v -0.2 0.4 -0.4
v 0.2 0.4 -0.4
v -0.2 0.7 0.1
v 0.2 0.7 0.1
v -0.3 0.7 0
v -0.2 0.7 0
v 0.2 0.7 0
v 0.3 0.7 0
v -0.3 0.7 -0.3
v -0.2 0.7 -0.3
v 0.2 0.7 -0.3
v 0.3 0.7 -0.3
v -0.2 0.7 -0.4
v 0.2 0.7 -0.4
v -0.2 1 0.1
v 0.2 1 0.1
v -0.3 1 0
v -0.2 1 0
v 0.2 1 0
v 0.3 1 0
v -0.3 1 -0.3
v -0.2 1 -0.3
v 0.2 1 -0.3
v 0.3 1 -0.3
v -0.2 1 -0.4
v 0.2 1 -0.4
v -0.2 1.3 0.3
v -0.1 1.3 0.3
v 0.1 1.3 0.3
v 0.2 1.3 0.3
v -0.2 1.3 0.2
v -0.1 1.3 0.2
v 0.1 1.3 0.2
v 0.2 1.3 0.2
v -0.2 1.3 0.1
v -0.1 1.3 0.1
v 0.1 1.3 0.1
v 0.2 1.3 0.1
v -0.3 1.3 0
v -0.2 1.3 0
v -0.1 1.3 0
v 0.1 1.3 0
v 0.2 1.3 0
v 0.3 1.3 0
v -0.2 1.3 -0.1
v 0.2 1.3 -0.1
v -0.2 1.3 -0.2
v -0.1 1.3 -0.2
v 0.1 1.3 -0.2
v 0.2 1.3 -0.2
v -0.3 1.3 -0.3
v -0.2 1.3 -0.3
v -0.1 1.3 -0.3
v 0.1 1.3 -0.3
v 0.2 1.3 -0.3
v 0.3 1.3 -0.3
v -0.2 1.3 -0.4
v 0.2 1.3 -0.4
v -0.2 1.4 0.4
v -0.1 1.4 0.4
v 0.1 1.4 0.4
v 0.2 1.4 0.4
v -0.2 1.4 0.3
v -0.1 1.4 0.3
v 0.1 1.4 0.3
v 0.2 1.4 0.3
v -0.1 1.4 0.2
v 0.1 1.4 0.2
v -0.2 1.4 0
v -0.1 1.4 0
v 0.1 1.4 0
v 0.2 1.4 0
v -0.2 1.4 -0.1
v -0.1 1.4 -0.1
v 0.1 1.4 -0.1
v 0.2 1.4 -0.1
v -0.2 1.4 -0.2
v -0.1 1.4 -0.2
v 0.1 1.4 -0.2
v 0.2 1.4 -0.2
v -0.1 1.4 -0.3
v 0.1 1.4 -0.3
v -0.1 1.5 0.4
v 0.1 1.5 0.4
v -0.1 1.5 0.3
v 0.1 1.5 0.3
v -0.1 1.5 -0.1
v 0.1 1.5 -0.1
v -0.1 1.5 -0.2
v 0.1 1.5 -0.2

# faces
f 3/5/1 2/5/1 1/5/1
f 4/5/1 2/5/1 3/5/1
f 7/5/1 6/5/1 5/5/1
f 8/5/1 6/5/1 7/5/1
f 11/5/1 10/5/1 9/5/1
f 12/5/1 10/5/1 11/5/1
f 15/5/1 14/5/1 13/5/1
f 16/5/1 14/5/1 15/5/1
f 20/6/1 18/6/1 17/6/1
f 21/3/1 19/3/1 18/3/1
f 21/6/1 18/6/1 20/6/1
f 22/3/1 19/3/1 21/3/1
f 25/3/1 21/3/1 20/3/1
f 26/3/1 21/3/1 25/3/1
f 27/5/1 24/5/1 23/5/1
f 28/5/1 24/5/1 27/5/1
f 30/1/1 27/1/1 26/1/1
f 31/1/1 27/1/1 30/1/1
f 33/3/1 30/3/1 29/3/1
f 34/3/1 30/3/1 33/3/1
f 35/5/1 32/5/1 31/5/1
f 36/5/1 32/5/1 35/5/1
f 38/1/1 35/1/1 34/1/1
f 39/1/1 35/1/1 38/1/1
f 41/3/1 38/3/1 37/3/1
f 42/3/1 38/3/1 41/3/1
f 43/5/1 40/5/1 39/5/1
f 44/5/1 40/5/1 43/5/1
f 46/1/1 43/1/1 42/1/1
f 47/1/1 43/1/1 46/1/1
f 51/6/1 50/6/1 49/6/1
f 52/6/1 50/6/1 51/6/1
f 53/3/1 46/3/1 45/3/1
f 54/3/1 46/3/1 53/3/1
f 57/5/1 48/5/1 47/5/1
f 58/5/1 48/5/1 57/5/1
f 59/6/1 51/6/1 49/6/1
f 60/6/1 51/6/1 59/6/1
f 61/1/1 55/1/1 54/1/1
f 62/3/1 56/3/1 55/3/1
f 62/1/1 55/1/1 61/1/1
f 63/3/1 56/3/1 62/3/1
f 68/6/1 65/6/1 64/6/1
f 69/6/1 65/6/1 68/6/1
f 71/6/1 67/6/1 66/6/1
f 73/3/1 70/3/1 69/3/1
f 74/3/1 70/3/1 73/3/1
f 75/6/1 72/6/1 71/6/1
f 75/6/1 71/6/1 66/6/1
f 76/6/1 72/6/1 75/6/1
f 80/6/1 78/6/1 77/6/1
f 81/6/1 78/6/1 80/6/1
f 85/6/1 80/6/1 79/6/1
f 86/6/1 80/6/1 85/6/1
f 88/3/1 83/3/1 82/3/1
f 89/3/1 83/3/1 88/3/1
f 90/6/1 85/6/1 84/6/1
f 91/6/1 85/6/1 90/6/1
f 92/3/1 88/3/1 87/3/1
f 93/3/1 88/3/1 92/3/1
f 94/6/2 95/6/2 98/6/2
f 98/6/2 95/6/2 99/6/2
f 96/6/2 97/6/2 101/6/2
f 99/3/2 100/3/2 103/3/2
f 103/3/2 100/3/2 104/3/2
f 101/6/2 102/6/2 105/6/2
f 96/6/2 101/6/2 105/6/2
f 105/6/2 102/6/2 106/6/2
f 107/6/2 108/6/2 110/6/2
f 110/6/2 108/6/2 111/6/2
f 109/6/2 110/6/2 115/6/2
f 115/6/2 110/6/2 116/6/2
f 112/3/2 113/3/2 118/3/2
f 118/3/2 113/3/2 119/3/2
f 114/6/2 115/6/2 120/6/2
f 120/6/2 115/6/2 121/6/2
f 117/3/2 118/3/2 122/3/2
f 122/3/2 118/3/2 123/3/2
f 124/6/2 125/6/2 127/6/2
f 125/3/2 126/3/2 128/3/2
f 127/6/2 125/6/2 128/6/2
f 128/3/2 126/3/2 129/3/2
f 127/3/2 128/3/2 132/3/2
f 132/3/2 128/3/2 133/3/2
f 130/5/2 131/5/2 134/5/2
f 134/5/2 131/5/2 135/5/2
f 133/1/2 134/1/2 137/1/2
f 137/1/2 134/1/2 138/1/2
f 136/3/2 137/3/2 140/3/2
f 140/3/2 137/3/2 141/3/2
f 138/5/2 139/5/2 142/5/2
f 142/5/2 139/5/2 143/5/2
f 141/1/2 142/1/2 145/1/2
f 145/1/2 142/1/2 146/1/2
f 144/3/2 145/3/2 148/3/2
f 148/3/2 145/3/2 149/3/2
f 146/5/2 147/5/2 150/5/2
f 150/5/2 147/5/2 151/5/2
f 149/1/2 150/1/2 153/1/2
f 153/1/2 150/1/2 154/1/2
f 156/6/2 157/6/2 158/6/2
f 158/6/2 157/6/2 159/6/2
f 152/3/2 153/3/2 160/3/2
f 160/3/2 153/3/2 161/3/2
f 154/5/2 155/5/2 164/5/2
f 164/5/2 155/5/2 165/5/2
f 156/6/2 158/6/2 166/6/2
f 166/6/2 158/6/2 167/6/2
f 161/1/2 162/1/2 168/1/2
f 162/3/2 163/3/2 169/3/2
f 168/1/2 162/1/2 169/1/2
f 169/3/2 163/3/2 170/3/2
f 171/5/2 172/5/2 173/5/2
f 173/5/2 172/5/2 174/5/2
f 175/5/2 176/5/2 177/5/2
f 177/5/2 176/5/2 178/5/2
f 179/5/2 180/5/2 181/5/2
f 181/5/2 180/5/2 182/5/2
f 183/5/2 184/5/2 185/5/2
f 185/5/2 184/5/2 186/5/2
f 191/6/3 188/6/3 187/6/3
f 193/6/3 190/6/3 189/6/3
f 194/6/3 190/6/3 193/6/3
f 195/6/3 192/6/3 191/6/3
f 195/6/3 191/6/3 187/6/3
f 196/6/3 192/6/3 195/6/3
f 197/6/3 195/6/3 187/6/3
f 198/6/3 195/6/3 197/6/3
f 208/6/3 200/6/3 199/6/3
f 209/3/3 201/3/3 200/3/3
f 209/6/3 200/6/3 208/6/3
f 210/3/3 201/3/3 209/3/3
f 211/3/3 207/3/3 206/3/3
f 212/3/3 207/3/3 211/3/3
f 213/3/3 207/3/3 212/3/3
f 214/3/3 209/3/3 208/3/3
f 215/3/3 209/3/3 214/3/3
f 216/3/3 201/3/3 210/3/3
f 217/6/3 212/6/3 211/6/3
f 218/6/3 212/6/3 217/6/3
f 220/6/3 215/6/3 214/6/3
f 221/3/3 216/3/3 215/3/3
f 221/6/3 215/6/3 220/6/3
f 222/3/3 201/3/3 216/3/3
f 222/3/3 216/3/3 221/3/3
f 223/3/3 203/3/3 202/3/3
f 224/3/3 203/3/3 223/3/3
f 225/3/3 205/3/3 204/3/3
f 226/3/3 205/3/3 225/3/3
f 227/3/3 219/3/3 218/3/3
f 227/3/3 218/3/3 217/3/3
f 228/3/3 219/3/3 227/3/3
f 237/5/3 230/5/3 229/5/3
f 238/5/3 230/5/3 237/5/3
f 239/5/3 232/5/3 231/5/3
f 240/5/3 232/5/3 239/5/3
f 241/5/3 234/5/3 233/5/3
f 242/5/3 234/5/3 241/5/3
f 243/5/3 236/5/3 235/5/3
f 244/5/3 236/5/3 243/5/3
f 248/1/3 243/1/3 242/1/3
f 249/1/3 245/1/3 244/1/3
f 250/1/3 245/1/3 249/1/3
f 251/6/3 247/6/3 246/6/3
f 252/6/3 247/6/3 251/6/3
f 253/1/3 248/1/3 242/1/3
f 254/3/3 250/3/3 249/3/3
f 255/3/3 250/3/3 254/3/3
f 257/1/3 239/1/3 238/1/3
f 258/1/3 239/1/3 257/1/3
f 259/1/3 241/1/3 240/1/3
f 260/1/3 241/1/3 259/1/3
f 261/1/3 253/1/3 242/1/3
f 262/1/3 253/1/3 261/1/3
f 263/1/3 255/1/3 254/1/3
f 264/1/3 255/1/3 263/1/3
f 265/5/3 257/5/3 256/5/3
f 266/5/3 257/5/3 265/5/3
f 267/5/3 259/5/3 258/5/3
f 268/5/3 259/5/3 267/5/3
f 269/5/3 261/5/3 260/5/3
f 270/5/3 261/5/3 269/5/3
f 271/5/3 263/5/3 262/5/3
f 272/5/3 263/5/3 271/5/3
f 275/3/3 274/3/3 273/3/3
f 276/3/3 274/3/3 275/3/3
f 277/6/4 278/6/4 279/6/4
f 279/6/4 278/6/4 280/6/4
f 280/6/4 281/6/4 283/6/4
f 283/6/4 281/6/4 284/6/4
f 282/6/4 283/6/4 285/6/4
f 285/6/4 283/6/4 286/6/4
f 287/6/4 288/6/4 291/6/4
f 291/6/4 288/6/4 292/6/4
f 289/6/4 290/6/4 294/6/4
f 294/6/4 290/6/4 295/6/4
f 292/6/4 293/6/4 297/6/4
f 297/6/4 293/6/4 298/6/4
f 296/6/4 297/6/4 299/6/4
f 299/6/4 297/6/4 300/6/4
f 301/3/4 302/3/4 306/3/4
f 306/3/4 302/3/4 307/3/4
f 303/3/4 304/3/4 308/3/4
f 308/3/4 304/3/4 309/3/4
f 305/6/4 306/6/4 311/6/4
f 311/6/4 306/6/4 312/6/4
f 309/3/4 310/3/4 315/3/4
f 315/3/4 310/3/4 316/3/4
f 312/3/4 313/3/4 317/3/4
f 317/3/4 313/3/4 318/3/4
f 314/3/4 315/3/4 319/3/4
f 319/3/4 315/3/4 320/3/4
f 321/5/4 322/5/4 329/5/4
f 329/5/4 322/5/4 330/5/4
f 323/5/4 324/5/4 331/5/4
f 331/5/4 324/5/4 332/5/4
f 325/5/4 326/5/4 333/5/4
f 333/5/4 326/5/4 334/5/4
f 327/5/4 328/5/4 335/5/4
f 335/5/4 328/5/4 336/5/4
f 337/3/4 338/3/4 341/3/4
f 341/3/4 338/3/4 342/3/4
f 339/3/4 340/3/4 343/3/4
f 343/3/4 340/3/4 344/3/4
f 330/1/4 331/1/4 346/1/4
f 346/1/4 331/1/4 347/1/4
f 332/1/4 333/1/4 348/1/4
f 348/1/4 333/1/4 349/1/4
f 334/1/4 335/1/4 350/1/4
f 350/1/4 335/1/4 351/1/4
f 345/5/4 346/5/4 353/5/4
f 353/5/4 346/5/4 354/5/4
f 347/5/4 348/5/4 355/5/4
f 355/5/4 348/5/4 356/5/4
f 349/5/4 350/5/4 357/5/4
f 357/5/4 350/5/4 358/5/4
f 351/5/4 352/5/4 359/5/4
f 359/5/4 352/5/4 360/5/4
f 361/5/4 362/5/4 369/5/4
f 369/5/4 362/5/4 370/5/4
f 363/5/4 364/5/4 371/5/4
f 371/5/4 364/5/4 372/5/4
f 365/5/4 366/5/4 373/5/4
f 373/5/4 366/5/4 374/5/4
f 367/5/4 368/5/4 375/5/4
f 375/5/4 368/5/4 376/5/4
f 379/6/5 378/6/5 377/6/5
f 380/6/5 378/6/5 379/6/5
f 383/6/5 382/6/5 381/6/5
f 384/6/5 382/6/5 383/6/5
f 389/6/5 386/6/5 385/6/5
f 390/3/5 387/3/5 386/3/5
f 390/6/5 386/6/5 389/6/5
f 391/6/5 388/6/5 387/6/5
f 391/3/5 387/3/5 390/3/5
f 392/6/5 388/6/5 391/6/5
f 393/3/5 390/3/5 389/3/5
f 394/3/5 390/3/5 393/3/5
f 395/3/5 392/3/5 391/3/5
f 396/3/5 392/3/5 395/3/5
f 397/3/5 395/3/5 394/3/5
f 398/3/5 395/3/5 397/3/5
f 401/6/5 400/6/5 399/6/5
f 402/6/5 400/6/5 401/6/5
f 407/5/5 404/5/5 403/5/5
f 410/5/5 406/5/5 405/5/5
f 411/5/5 407/5/5 403/5/5
f 412/4/5 408/4/5 407/4/5
f 412/5/5 407/5/5 411/5/5
f 413/4/5 408/4/5 412/4/5
f 414/4/5 410/4/5 409/4/5
f 415/5/5 406/5/5 410/5/5
f 415/4/5 410/4/5 414/4/5
f 416/5/5 406/5/5 415/5/5
f 417/5/5 413/5/5 412/5/5
f 417/5/5 414/5/5 413/5/5
f 417/5/5 415/5/5 414/5/5
f 418/5/5 415/5/5 417/5/5
f 422/3/5 420/3/5 419/3/5
f 423/3/5 420/3/5 422/3/5
f 425/5/5 422/5/5 421/5/5
f 426/5/5 422/5/5 425/5/5
f 427/5/5 424/5/5 423/5/5
f 428/5/5 424/5/5 427/5/5
f 429/5/5 427/5/5 426/5/5
f 430/5/5 427/5/5 429/5/5
f 434/3/5 432/3/5 431/3/5
f 435/3/5 432/3/5 434/3/5
f 437/5/5 434/5/5 433/5/5
f 438/5/5 434/5/5 437/5/5
f 439/5/5 436/5/5 435/5/5
f 440/5/5 436/5/5 439/5/5
f 441/5/5 439/5/5 438/5/5
f 442/5/5 439/5/5 441/5/5
f 448/3/5 444/3/5 443/3/5
f 449/6/5 445/6/5 444/6/5
f 449/3/5 444/3/5 448/3/5
f 450/3/5 446/3/5 445/3/5
f 450/6/5 445/6/5 449/6/5
f 451/3/5 446/3/5 450/3/5
f 453/5/5 448/5/5 447/5/5
f 454/5/5 448/5/5 453/5/5
f 455/5/5 452/5/5 451/5/5
f 456/5/5 452/5/5 455/5/5
f 457/5/5 455/5/5 454/5/5
f 458/5/5 455/5/5 457/5/5
f 461/6/5 460/6/5 459/6/5
f 462/6/5 460/6/5 461/6/5
f 463/6/5 460/6/5 462/6/5
f 464/6/5 460/6/5 463/6/5
f 465/6/5 463/6/5 462/6/5
f 466/6/5 463/6/5 465/6/5
f 467/6/6 468/6/6 469/6/6
f 469/6/6 468/6/6 470/6/6
f 471/3/6 472/3/6 474/3/6
f 474/3/6 472/3/6 475/3/6
f 473/5/6 474/5/6 477/5/6
f 477/5/6 474/5/6 478/5/6
f 475/5/6 476/5/6 479/5/6
f 479/5/6 476/5/6 480/5/6
f 478/5/6 479/5/6 481/5/6
f 481/5/6 479/5/6 482/5/6
f 483/3/6 484/3/6 486/3/6
f 486/3/6 484/3/6 487/3/6
f 485/5/6 486/5/6 489/5/6
f 489/5/6 486/5/6 490/5/6
f 487/5/6 488/5/6 491/5/6
f 491/5/6 488/5/6 492/5/6
f 490/5/6 491/5/6 493/5/6
f 493/5/6 491/5/6 494/5/6
f 495/3/6 496/3/6 498/3/6
f 498/3/6 496/3/6 499/3/6
f 497/5/6 498/5/6 501/5/6
f 501/5/6 498/5/6 502/5/6
f 499/5/6 500/5/6 503/5/6
f 503/5/6 500/5/6 504/5/6
f 502/5/6 503/5/6 505/5/6
f 505/5/6 503/5/6 506/5/6
f 507/6/6 508/6/6 511/6/6
f 511/6/6 508/6/6 512/6/6
f 509/6/6 510/6/6 513/6/6
f 513/6/6 510/6/6 514/6/6
f 512/6/6 513/6/6 516/6/6
f 516/6/6 513/6/6 517/6/6
f 515/3/6 516/3/6 520/3/6
f 517/3/6 518/3/6 520/3/6
f 516/3/6 517/3/6 520/3/6
f 520/3/6 518/3/6 521/3/6
f 521/3/6 518/3/6 522/3/6
f 522/3/6 518/3/6 523/3/6
f 519/5/6 520/5/6 525/5/6
f 523/5/6 524/5/6 526/5/6
f 519/5/6 525/5/6 527/5/6
f 526/5/6 524/5/6 530/5/6
f 527/5/6 528/5/6 531/5/6
f 519/5/6 527/5/6 531/5/6
f 531/5/6 528/5/6 532/5/6
f 532/5/6 528/5/6 533/5/6
f 529/5/6 530/5/6 534/5/6
f 530/5/6 524/5/6 535/5/6
f 534/5/6 530/5/6 535/5/6
f 535/5/6 524/5/6 536/5/6
f 532/5/6 533/5/6 537/5/6
f 533/5/6 534/5/6 537/5/6
f 534/5/6 535/5/6 537/5/6
f 537/5/6 535/5/6 538/5/6
f 539/6/6 540/6/6 543/6/6
f 543/6/6 540/6/6 544/6/6
f 541/6/6 542/6/6 545/6/6
f 545/6/6 542/6/6 546/6/6
f 544/6/6 545/6/6 547/6/6
f 547/6/6 545/6/6 548/6/6
f 549/1/6 550/1/6 553/1/6
f 550/3/6 551/3/6 554/3/6
f 553/1/6 550/1/6 554/1/6
f 551/1/6 552/1/6 555/1/6
f 554/3/6 551/3/6 555/3/6
f 555/1/6 552/1/6 556/1/6
f 553/3/6 554/3/6 557/3/6
f 557/3/6 554/3/6 558/3/6
f 555/3/6 556/3/6 559/3/6
f 559/3/6 556/3/6 560/3/6
f 558/3/6 559/3/6 561/3/6
f 561/3/6 559/3/6 562/3/6
f 563/6/6 564/6/6 565/6/6
f 565/6/6 564/6/6 566/6/6
f 567/3/6 568/3/6 569/3/6
f 569/3/6 568/3/6 570/3/6
